<svg xmlns="http://www.w3.org/2000/svg" version="1.1" xmlns:xlink="http://www.w3.org/1999/xlink" xmlns:svgjs="http://svgjs.com/svgjs" width="262.000000pt" height="225.000000pt"><svg version="1.0" xmlns="http://www.w3.org/2000/svg" width="262.000000pt" height="225.000000pt" viewBox="0 0 262.000000 225.000000" preserveAspectRatio="xMidYMid meet">
<metadata>
Created by potrace 1.16, written by Peter Selinger 2001-2019
</metadata>
<g transform="translate(0.000000,225.000000) scale(0.100000,-0.100000)" fill="#000000" stroke="none">
<path d="M0 1125 l0 -1125 1310 0 1310 0 0 1125 0 1125 -1310 0 -1310 0 0
-1125z m2140 5 l0 -720 -717 2 -718 3 -3 128 -3 127 41 0 40 0 0 -90 0 -90
640 0 640 0 0 640 0 640 -640 0 -640 0 0 -90 0 -90 -40 0 -40 0 0 130 0 130
720 0 720 0 0 -720z m-608 387 c74 -36 159 -128 189 -204 21 -50 24 -76 24
-188 0 -125 -1 -132 -31 -195 -39 -81 -100 -142 -184 -183 -62 -31 -69 -32
-190 -32 -116 0 -129 2 -181 27 -201 99 -285 371 -181 591 33 70 96 138 156
169 78 40 117 48 231 45 97 -2 117 -5 167 -30z m-682 -37 l0 -60 -190 0 -190
0 0 -115 0 -115 150 0 150 0 0 -60 0 -60 -150 0 -150 0 0 -175 0 -175 -75 0
-75 0 0 410 0 410 265 0 265 0 0 -60z"></path>
<path d="M1264 1406 c-105 -34 -164 -123 -172 -257 -8 -132 34 -222 126 -272
136 -74 293 -25 355 112 30 68 31 217 0 283 -39 85 -113 135 -210 143 -35 3
-75 -1 -99 -9z"></path>
</g>
</svg><style>@media (prefers-color-scheme: light) { :root { filter: none; } }
</style></svg>