<?xml version="1.0" standalone="no"?>
<!DOCTYPE svg PUBLIC "-//W3C//DTD SVG 20010904//EN"
 "http://www.w3.org/TR/2001/REC-SVG-20010904/DTD/svg10.dtd">
<svg version="1.0" xmlns="http://www.w3.org/2000/svg"
 width="363.000000pt" height="236.000000pt" viewBox="0 0 363.000000 236.000000"
 preserveAspectRatio="xMidYMid meet">

<g transform="translate(0.000000,236.000000) scale(0.100000,-0.100000)"
fill="#000000" stroke="none">
<path d="M2437 1960 c-182 -33 -343 -116 -464 -238 -100 -102 -157 -199 -199
-339 -23 -76 -27 -107 -28 -223 -1 -159 14 -228 78 -365 79 -168 212 -301 381
-381 119 -56 188 -74 320 -81 256 -13 497 78 663 251 98 101 158 209 198 356
25 91 26 320 1 409 -41 149 -98 256 -191 357 -152 167 -345 252 -586 259 -69
2 -147 0 -173 -5z m219 -331 c227 -41 385 -234 386 -470 1 -253 -159 -452
-394 -491 -200 -33 -405 78 -495 267 -32 68 -37 88 -41 174 -2 55 1 120 7 151
30 141 132 273 254 331 101 47 178 57 283 38z"/>
<path d="M510 1150 l0 -790 180 0 180 0 0 280 0 280 345 0 345 0 0 160 0 160
-345 0 -345 0 0 185 0 185 375 0 375 0 0 165 0 165 -555 0 -555 0 0 -790z"/>
</g>
</svg>
